<svg xmlns="http://www.w3.org/2000/svg" version="1.0" viewBox="262 195 503 503" preserveAspectRatio="xMidYMid meet">
<defs>
    <linearGradient id="budget-buddy-grad" x1="0%" y1="0%" x2="100%" y2="100%">
      <stop offset="0%" stop-color="#22d3ee" />
      <stop offset="100%" stop-color="#8b5cf6" />
    </linearGradient>
  </defs>
<g transform="translate(0.000000,1024.000000) scale(0.100000,-0.100000)" fill="url(#budget-buddy-grad)" stroke="none">
<path fill-rule="evenodd" d="M4830 7027 c30 -9 91 -34 135 -56 387 -192 486 -740 191 -1058 l-61 -65 80 -82 c92 -92 142 -178 176 -301 30 -112 24 -296 -14 -403 -67 -191 -212 -342 -397 -418 -127 -52 -163 -54 -807 -54 l-596 0 6 133 c12 242 71 509 155 705 99 229 242 396 413 482 127 65 167 73 399 80 187 6 223 10 272 29 80 31 157 104 194 183 26 57 29 73 29 168 0 95 -3 110 -28 160 -34 66 -86 122 -146 157 -81 49 -124 53 -562 53 l-406 0 -6 -107 c-4 -58 -7 -241 -7 -406 l0 -300 -63 -66 c-82 -85 -144 -174 -201 -286 l-45 -90 -1 783 0 783 618 -4 c540 -3 624 -5 672 -20z m1335 -1 c121 -36 205 -86 296 -176 70 -69 94 -101 128 -170 61 -127 74 -190 69 -340 -4 -96 -10 -141 -28 -194 -28 -81 -98 -192 -161 -256 l-44 -44 76 -76 c41 -41 89 -100 106 -130 180 -318 87 -727 -209 -923 -100 -65 -192 -103 -284 -117 -38 -5 -264 -10 -502 -10 l-433 0 61 50 c66 56 123 123 172 205 l32 54 320 3 c371 4 391 8 489 98 209 191 162 523 -91 643 l-67 32 -325 4 -325 3 -50 75 c-27 41 -54 80 -59 87 -5 7 8 36 35 79 l43 67 280 0 c316 0 385 8 469 52 94 51 153 135 178 256 16 75 3 166 -32 239 -33 68 -116 146 -186 174 -56 23 -70 24 -385 27 l-326 3 -39 67 c-21 37 -75 105 -120 152 -46 46 -83 86 -83 88 0 2 210 1 468 -1 411 -3 474 -5 527 -21z M4346 5669 c-213 -50 -392 -315 -459 -681 l-14 -77 41 -6 c22 -4 221 -5 441 -3 394 4 401 4 460 27 84 34 183 133 215 216 30 77 33 197 7 271 -40 115 -129 205 -242 244 -50 17 -82 20 -234 19 -97 -1 -193 -5 -215 -10z"/>
</g>
</svg>