<svg xmlns="http://www.w3.org/2000/svg" viewBox="0 0 100 100" fill="none">
  <rect width="100" height="100" rx="24" fill="#1e293b"/>
  <path d="M 35 26 L 35 78 M 35 26 C 49 26 57 34 57 42 C 57 50 49 52 35 52 M 35 52 C 21 52 21 78 35 78" stroke="#22d3ee" stroke-width="6.5" stroke-linecap="round" stroke-linejoin="round" />
  <path d="M 57 26 L 57 52 M 57 26 C 71 26 79 34 79 42 C 79 50 71 52 57 52 M 57 52 C 57 70 49 78 35 78 L 57 78 C 71 78 79 76 79 65 C 79 54 71 52 57 52" stroke="#22d3ee" stroke-width="6.5" stroke-linecap="round" stroke-linejoin="round" />
</svg>